<?xml version="1.0" encoding="UTF-8" standalone="no"?>
<!-- Generator: Adobe Illustrator 22.1.0, SVG Export Plug-In . SVG Version: 6.00 Build 0)  -->

<svg
   xmlns:dc="http://purl.org/dc/elements/1.1/"
   xmlns:cc="http://creativecommons.org/ns#"
   xmlns:rdf="http://www.w3.org/1999/02/22-rdf-syntax-ns#"
   xmlns:svg="http://www.w3.org/2000/svg"
   xmlns="http://www.w3.org/2000/svg"
   xmlns:sodipodi="http://sodipodi.sourceforge.net/DTD/sodipodi-0.dtd"
   xmlns:inkscape="http://www.inkscape.org/namespaces/inkscape"
   version="1.1"
   id="Ebene_1"
   x="0px"
   y="0px"
   viewBox="0 0 50.000001 36.3"
   xml:space="preserve"
   sodipodi:docname="logo.svg"
   inkscape:version="0.92.2 5c3e80d, 2017-08-06"
   width="50"
   height="36.299999"><metadata
     id="metadata905"><rdf:RDF><cc:Work
         rdf:about=""><dc:format>image/svg+xml</dc:format><dc:type
           rdf:resource="http://purl.org/dc/dcmitype/StillImage" /><dc:title></dc:title></cc:Work></rdf:RDF></metadata><defs
     id="defs903" /><sodipodi:namedview
     pagecolor="#ffffff"
     bordercolor="#666666"
     borderopacity="1"
     objecttolerance="10"
     gridtolerance="10"
     guidetolerance="10"
     inkscape:pageopacity="0"
     inkscape:pageshadow="2"
     inkscape:window-width="3440"
     inkscape:window-height="1395"
     id="namedview901"
     showgrid="false"
     inkscape:zoom="19.959378"
     inkscape:cx="65.132291"
     inkscape:cy="7.7288329"
     inkscape:window-x="0"
     inkscape:window-y="1"
     inkscape:window-maximized="1"
     inkscape:current-layer="Ebene_1" /><style
     type="text/css"
     id="style880">
	.st0{fill:#887765;}
	.st1{fill:#007AC3;}
</style><g
     id="g898"
     transform="matrix(0.98906075,0,0,0.98895829,-78.715774,0.25051057)"><g
       id="g892"><path
         class="st0"
         d="M 113.8,0.4 110.1,0 c -0.1,0 -0.6,0 -0.7,0 -0.4,0 -0.5,0.4 -0.6,0.9 l -3.3,9.9 -0.7,2.1 -0.7,-2.1 -3.3,-9.9 C 100.7,0.5 100.5,0 100.2,0 100.1,0 99.6,0 99.5,0 l -3.7,0.4 c -0.7,0.1 -1,0.1 -1,0.5 0,0.3 0.2,0.7 0.2,0.7 l 8.9,20.9 0.8,1.8 0.8,-1.8 9,-20.9 c 0,-0.1 0.2,-0.4 0.2,-0.7 0.1,-0.3 -0.3,-0.4 -0.9,-0.5 z"
         id="path890"
         inkscape:connector-curvature="0"
         style="fill:#887765" /></g><g
       id="g896"><path
         class="st1"
         d="m 125.4,25.7 c -3.6,0.9 -13.6,2.1 -20.7,2.1 -7.1,0 -17.1,-1.3 -20.7,-2.1 -0.5,-0.1 -1.1,0.1 -1.2,0.6 -0.6,1.6 -0.9,5.5 -0.9,10 h 3.8 c 0.2,-2.8 0.3,-4.4 0.5,-5.2 0.1,-0.6 0.7,-1 1.3,-0.8 3.2,0.9 11.5,1.9 17.3,1.9 5.8,0 14.1,-1 17.3,-1.9 0.6,-0.2 1.2,0.2 1.3,0.8 0.2,0.9 0.3,2.4 0.5,5.2 h 3.8 c 0,-4.5 -0.4,-8.4 -0.9,-10 -0.3,-0.5 -0.8,-0.8 -1.4,-0.6 z"
         id="path894"
         inkscape:connector-curvature="0"
         style="fill:#007ac3" /></g></g></svg>